<svg width="1058" height="785" viewBox="0 0 1058 785" fill="none" xmlns="http://www.w3.org/2000/svg">
<g id="undraw_Ride_a_bicycle_2yok 1">
<g clip-path="url(#clip0)">
<path id="Vector" d="M209.73 115.43C204.25 122.08 202.14 131.43 199.78 140.22C180.78 211.06 133.96 268.04 80.64 308.74C58.06 325.98 30.57 349.1 35.51 380.01C38.17 396.61 49.84 408.83 58.51 422.35C76.7 450.66 82.6 489.14 73.93 523.03C64.07 561.59 36.51 597.57 45.04 636.56C50.3 660.56 68.16 677.64 85.33 692.32C112.117 715.207 139.757 736.647 168.25 756.64C187.35 770.04 207.67 783.08 229.93 784.78C249.53 786.28 268.73 778.83 287.34 771.48C303.6 765.05 320.27 758.36 333.4 745.48C341.97 737.07 348.8 726.22 358.32 719.34C380.68 703.18 409.4 713.42 435.04 720.34C495.54 736.58 560.29 730.65 617.86 703.6C706.17 662.1 773.48 574.95 859.86 528.19C897 508.08 937.4 495.6 971.79 469.7C991.165 454.953 1007.81 436.936 1020.99 416.46C1046.99 376.35 1061.05 325.21 1056.99 275.15C1052.93 225.09 1030.18 176.85 994.45 148.59C956.2 118.34 907.89 112.69 864.37 94.53C819.43 75.77 779.45 43.53 734.94 23.4C698.924 7.15665 659.728 -0.81716 620.228 0.0636141C580.728 0.944389 541.926 10.6574 506.67 28.49C458.23 52.99 409.13 110.15 355.18 114.49C316.74 117.49 239.75 79.01 209.73 115.43Z" fill="url(#paint0_linear)"/>
<g id="left-wheel">
<path id="Vector_2" d="M255.725 719.778L249.455 621.838L249.325 621.628L243.005 623.828L213.925 708.678L167.675 675.888L241.345 622.478L241.415 622.268L241.835 622.118L246.585 618.668L169.345 575.358L150.425 596.158L153.425 615.658L242.245 617.278V619.278L151.765 617.658L148.345 595.518L174.245 567.058L212.995 521.858L213.685 523.728L221.885 514.728L252.345 520.188V518.978L254.345 519.038V520.548L299.705 528.668L257.415 613.278L251.245 617.748V618.248V618.808L349.045 584.728L337.435 675.938L254.435 623.068L251.515 621.428L300.455 700.308L255.725 719.778ZM251.725 625.438L257.575 716.818L297.625 699.438L251.725 625.438ZM171.145 675.868L212.935 705.498L240.275 625.758L171.145 675.868ZM253.465 620.208L255.555 621.378L335.905 672.578L346.705 587.708L253.465 620.208ZM246.365 613.008L248.875 617.058L249.315 616.738L252.315 522.208L222.575 516.888L214.415 525.888L246.365 613.008ZM170.945 573.948L245.785 615.948L244.485 613.818L212.905 527.548L175.715 568.418L170.945 573.948ZM254.345 522.558L251.345 615.278L255.865 611.998L296.775 530.178L254.345 522.558Z" fill="#535461"/>
<path id="Vector_3" d="M365.415 592.738C361.405 574.919 353.285 558.283 341.705 544.158C337.406 538.909 332.666 534.038 327.535 529.598C307.809 512.567 282.986 502.568 256.962 501.17C230.938 499.771 205.187 507.053 183.749 521.873C162.311 536.693 146.401 558.211 138.515 583.05C130.629 607.89 131.214 634.645 140.178 659.116C149.142 683.587 165.978 704.39 188.042 718.258C210.107 732.127 236.152 738.277 262.09 735.743C288.028 733.208 312.39 722.134 331.353 704.257C350.317 686.379 362.807 662.712 366.865 636.968C367.809 630.907 368.284 624.783 368.285 618.648C368.292 609.932 367.329 601.242 365.415 592.738ZM250.225 707.088C231.993 707.069 214.209 701.435 199.292 690.953C184.374 680.47 173.047 665.648 166.851 648.501C160.655 631.354 159.89 612.715 164.66 595.118C169.43 577.521 179.505 561.82 193.513 550.15C207.521 538.48 224.783 531.408 242.953 529.895C261.122 528.381 279.316 532.501 295.062 541.693C310.807 550.884 323.34 564.703 330.956 581.268C338.571 597.834 340.9 616.343 337.625 634.278C333.875 654.722 323.076 673.203 307.107 686.506C291.137 699.809 271.01 707.093 250.225 707.088V707.088Z" fill="#535461"/>
<path id="Vector_4" d="M250.225 631.058C257.3 631.058 263.035 625.323 263.035 618.248C263.035 611.174 257.3 605.438 250.225 605.438C243.15 605.438 237.415 611.174 237.415 618.248C237.415 625.323 243.15 631.058 250.225 631.058Z" fill="#535461"/>
</g>
<g id="right-wheel">
<path id="Vector_5" d="M680.847 712.78L674.587 614.88L674.457 614.67L668.137 616.87L639.047 701.68L592.797 668.88L666.487 615.47L666.557 615.26L666.977 615.11L671.727 611.66L594.487 568.35L575.557 589.15L578.557 608.65L667.357 610.23V612.23L576.877 610.61L573.477 588.5L599.367 560.05L638.087 514.88L638.777 516.75L646.977 507.75L677.517 513.22V512.01L679.517 512.07V513.58L724.877 521.7L682.547 606.35L676.377 610.82V611.32V611.88L774.187 577.8L762.577 669.01L679.577 616.14L676.657 614.5L725.597 693.39L680.847 712.78ZM676.847 618.44L682.697 709.82L722.747 692.44L676.847 618.44ZM596.277 668.88L638.067 698.51L665.407 618.77L596.277 668.88ZM678.597 613.22L680.687 614.39L761.037 665.59L771.837 580.72L678.597 613.22ZM671.497 606.02L674.007 610.07L674.447 609.75L677.447 515.22L647.707 509.88L639.547 518.88L671.497 606.02ZM596.107 566.97L670.947 608.97L669.647 606.84L638.067 520.57L600.867 561.45L596.107 566.97ZM679.477 515.58L676.477 608.27L680.997 604.99L721.907 523.17L679.477 515.58Z" fill="#535461"/>
<path id="Vector_6" d="M675.757 494C665.144 493.988 654.578 495.415 644.347 498.24C639.071 499.695 633.904 501.523 628.887 503.71C602.157 515.297 580.674 536.387 568.594 562.898C556.514 589.41 554.697 619.459 563.492 647.233C572.287 675.008 591.071 698.533 616.209 713.259C641.348 727.984 671.054 732.863 699.582 726.952C728.109 721.04 753.431 704.759 770.648 681.257C787.865 657.755 795.754 628.702 792.789 599.72C789.823 570.738 776.215 543.885 754.595 524.356C732.975 504.828 704.881 494.012 675.747 494H675.757ZM675.357 700.09C655.076 700.082 635.408 693.137 619.62 680.407C603.831 667.678 592.872 649.931 588.562 630.113C584.252 610.295 586.851 589.599 595.928 571.463C605.004 553.326 620.011 538.84 638.457 530.41C643.149 528.262 648.021 526.532 653.017 525.24C665.229 522.07 677.977 521.537 690.411 523.678C702.845 525.818 714.681 530.581 725.13 537.652C735.58 544.722 744.404 553.937 751.015 564.683C757.627 575.429 761.873 587.46 763.473 599.975C765.073 612.49 763.989 625.202 760.293 637.265C756.598 649.329 750.375 660.467 742.04 669.939C733.704 679.41 723.447 686.998 711.951 692.196C700.455 697.395 687.984 700.086 675.367 700.09H675.357Z" fill="#535461"/>
<path id="Vector_7" d="M675.357 624.06C682.432 624.06 688.167 618.325 688.167 611.25C688.167 604.175 682.432 598.44 675.357 598.44C668.282 598.44 662.547 604.175 662.547 611.25C662.547 618.325 668.282 624.06 675.357 624.06Z" fill="#535461"/>
</g>
<g id="men-bike">
<path id="Vector_8" d="M387 554.303L344.293 512.159L330.947 525.683L373.654 567.827L387 554.303Z" fill="#6C63FF"/>
<path id="Vector_9" opacity="0.1" d="M387 554.303L344.293 512.159L330.947 525.683L373.654 567.827L387 554.303Z" fill="black"/>
<path id="Vector_10" d="M354.48 491.99C354.48 491.99 379.27 478.91 388.85 470.49C394.617 465.444 400.818 460.917 407.38 456.96L438.48 438.03L503.48 433.03L506.48 444.03C506.48 444.03 511.48 460.03 461.48 474.03C411.48 488.03 386.48 510.03 386.48 510.03C386.48 510.03 354.48 520.99 354.48 491.99Z" fill="#DB8B8B"/>
<path id="Vector_11" opacity="0.1" d="M389.13 507.86C387.36 509.21 386.48 509.99 386.48 509.99C386.48 509.99 354.48 520.99 354.48 491.99C354.48 491.99 356.03 491.17 358.48 489.8C360.955 493.831 364.423 497.16 368.551 499.469C372.679 501.778 377.33 502.99 382.06 502.99H385.45L389.13 507.86Z" fill="black"/>
<path id="Vector_12" opacity="0.05" d="M505.54 449.55C502.76 455.44 493.17 465.12 461.48 473.99C420.87 485.36 396.75 501.99 389.13 507.86C387.36 509.21 386.48 509.99 386.48 509.99C386.48 509.99 354.48 520.99 354.48 491.99C354.48 491.99 356.03 491.17 358.48 489.8C365.91 485.73 381.64 476.8 388.82 470.45C394.586 465.403 400.787 460.875 407.35 456.92L438.45 437.99L450.03 437.1L503.45 432.99L506.45 443.99C506.45 443.99 507.15 446.14 505.54 449.55Z" fill="black"/>
<path id="Vector_13" d="M354.98 485.49L328.48 502.99L406.08 567.99C406.08 567.99 417.48 560.99 411.48 552.99C411.48 552.99 391.48 535.99 390.48 511.99L384.48 503.99H381.09C375.358 503.991 369.767 502.211 365.089 498.897C360.412 495.583 356.88 490.898 354.98 485.49V485.49Z" fill="#ABB1D1"/>
<path id="Vector_14" opacity="0.1" d="M505.54 449.55C489.54 441.82 450.48 440.99 450.48 440.99L450.06 437.1L503.48 432.99L506.48 443.99C506.48 443.99 507.15 446.14 505.54 449.55Z" fill="black"/>
<path id="Vector_15" d="M450.48 438.99C450.48 438.99 497.48 439.99 509.48 449.99L503.48 328.99H438.48L450.48 438.99Z" fill="#ABB1D1"/>
<path id="Vector_16" opacity="0.05" d="M450.48 438.49C450.48 438.49 497.48 439.49 509.48 449.49L503.48 328.49H438.48L450.48 438.49Z" fill="black"/>
<path id="Vector_17" d="M488.24 364.95C488.24 364.95 605.89 360.95 608.29 376.16C610.69 391.37 490.64 384.96 490.64 384.96C490.64 384.96 481.04 375.35 488.24 364.95Z" fill="#535461"/>
<path id="Vector_18" opacity="0.05" d="M488.24 364.95C488.24 364.95 605.89 360.95 608.29 376.16C610.69 391.37 490.64 384.96 490.64 384.96C490.64 384.96 481.04 375.35 488.24 364.95Z" fill="black"/>
<path id="Vector_19" d="M393 425.78H372.19V606.66H393V425.78Z" fill="#6C63FF"/>
<path id="Vector_20" opacity="0.1" d="M393 425.77V439.7C386.08 440.6 379 441.17 372.19 441.39V425.77H393Z" fill="black"/>
<path id="Vector_21" d="M391.44 410.78C388.52 410.554 385.616 410.164 382.74 409.61C371.46 407.45 343.02 402.92 335.37 410.61C325.77 420.21 328.97 437.02 354.58 439.42C380.19 441.82 424.21 435.42 433.02 425.81C433.02 425.77 417.09 412.75 391.44 410.78Z" fill="#535461"/>
<path id="Vector_22" d="M387.4 475.4L605.9 407.37L613.1 424.18L389 501.01L387.4 475.4Z" fill="#6C63FF"/>
<path id="Vector_23" d="M452.23 582.65L609.9 427.38L618.7 440.18L468.23 597.05L452.23 582.65Z" fill="#6C63FF"/>
<path id="Vector_24" opacity="0.1" d="M653.58 529.85C648.584 531.142 643.712 532.872 639.02 535.02L629.46 508.31C634.477 506.123 639.644 504.295 644.92 502.84L653.58 529.85Z" fill="black"/>
<path id="Vector_25" d="M680.33 608.26L669.13 614.66L590.99 396.33L587.49 386.56L605.9 376.15L610.51 390.53L680.33 608.26Z" fill="#6C63FF"/>
<path id="Vector_26" opacity="0.1" d="M610.51 390.53L590.99 396.33L587.49 386.56L605.9 376.15L610.51 390.53Z" fill="black"/>
<path id="Vector_27" d="M491.44 407.37L601.09 369.75C601.09 369.75 620.3 372.15 613.09 388.16L502.65 420.97C502.65 420.97 485.85 422.57 491.44 407.37Z" fill="#535461"/>
<path id="Vector_28" opacity="0.1" d="M367.79 615.86C367.789 621.994 367.314 628.119 366.37 634.18C356.77 633.49 346.85 632.49 337.13 631.49C339.289 619.599 339.021 607.394 336.34 595.61C345.81 593.61 355.48 591.7 364.92 589.97C366.833 598.467 367.795 607.15 367.79 615.86V615.86Z" fill="black"/>
<path id="Vector_29" opacity="0.1" d="M393 585.38V606.65H372.19V588.65C379.39 587.4 386.39 586.29 393 585.38Z" fill="black"/>
<path id="Vector_30" d="M258.54 615.49C258.54 615.49 426.62 571.49 440.22 588.28C453.82 605.07 468.23 627.49 425.85 635.49C383.47 643.49 255.37 621.88 255.37 621.88L258.54 615.49Z" fill="#6C63FF"/>
<path id="Vector_31" opacity="0.1" d="M341.21 541.37L319.85 560.92C316.067 556.064 311.791 551.614 307.09 547.64L327.03 526.81C332.164 531.249 336.908 536.12 341.21 541.37V541.37Z" fill="black"/>
<path id="Vector_32" d="M252.94 606.66L378.59 475.4L382.6 505.81L259.34 618.66L252.94 606.66Z" fill="#6C63FF"/>
<path id="Vector_33" opacity="0.1" d="M448.22 628.27C462.364 628.27 473.83 616.804 473.83 602.66C473.83 588.516 462.364 577.05 448.22 577.05C434.076 577.05 422.61 588.516 422.61 602.66C422.61 616.804 434.076 628.27 448.22 628.27Z" fill="black"/>
<path id="Vector_34" d="M449.83 628.27C463.974 628.27 475.44 616.804 475.44 602.66C475.44 588.516 463.974 577.05 449.83 577.05C435.686 577.05 424.22 588.516 424.22 602.66C424.22 616.804 435.686 628.27 449.83 628.27Z" fill="#535461"/>
<path id="Vector_35" d="M442.992 600.736L442.984 600.742C439.977 602.991 439.362 607.253 441.611 610.26L461.937 637.441C464.186 640.448 468.448 641.063 471.455 638.814L471.463 638.808C474.471 636.559 475.085 632.297 472.836 629.29L452.51 602.109C450.261 599.102 446 598.487 442.992 600.736Z" fill="#6C63FF"/>
<path id="Vector_36" d="M565.48 246.99L563.1 277.1C562.826 280.914 562.876 284.744 563.25 288.55C563.56 291.92 563.25 297.82 559.95 306.82C555.713 318.317 553.523 330.467 553.48 342.72V376.99L530.48 372.99C530.48 372.99 531.48 324.99 527.48 316.99C523.48 308.99 530.48 237.99 530.48 237.99L565.48 246.99Z" fill="#DB8B8B"/>
<path id="Vector_37" opacity="0.05" d="M564.3 261.91L563.1 277.1C562.83 280.911 562.883 284.738 563.26 288.54C563.57 291.91 563.26 297.81 559.96 306.82C555.723 318.317 553.533 330.467 553.49 342.72V376.99L530.49 372.99C530.49 372.99 531.49 324.99 527.49 316.99C524.66 311.32 527.34 274.05 529.15 252.78C529.9 244.03 530.49 237.99 530.49 237.99L565.49 246.99L564.3 261.91Z" fill="black"/>
<path id="Vector_38" d="M451.5 476.99L442.85 526.19C441.759 532.759 440.086 539.218 437.85 545.49C432.78 559.35 436.02 578.78 438.48 589.38C439.57 594.06 440.48 597.02 440.48 597.02L414.48 611.02L406.48 605.02V601.02L405.48 512.02C399.48 498.02 401.48 477.02 405.48 469.02C406.617 466.392 407.417 463.63 407.86 460.8C409.86 450.08 410.48 435.02 410.48 435.02C410.48 435.02 426.48 408.02 445.48 426.02C452.48 432.65 455.14 441.32 455.7 449.62C456.68 463.83 451.5 476.99 451.5 476.99Z" fill="#DB8B8B"/>
<path id="Vector_39" opacity="0.1" d="M455.7 449.59C441.83 457.83 417.7 460.16 407.86 460.77C409.86 450.05 410.48 434.99 410.48 434.99C410.48 434.99 426.48 407.99 445.48 425.99C452.48 432.62 455.14 441.29 455.7 449.59Z" fill="black"/>
<path id="Vector_40" d="M489.48 424.99C478.846 430.653 468.797 437.352 459.48 444.99C443.48 457.99 403.48 458.99 403.48 458.99V443.99C404.48 425.99 387.48 405.99 364.48 349.99C349.79 314.23 353.86 293.99 358.72 283.99C361.48 278.34 364.48 275.99 364.48 275.99L489.48 299.99L493.95 313.39L503.48 341.99C503.48 341.99 468.48 343.99 462.48 346.99C456.48 349.99 460.48 376.99 460.48 376.99C454.48 404.99 489.48 424.99 489.48 424.99Z" fill="#ABB1D1"/>
<path id="Vector_41" opacity="0.1" d="M565.48 246.99L564.3 261.91C546.9 266.91 534.48 250.99 534.48 250.99C532.665 251.477 530.882 252.074 529.14 252.78C529.89 244.03 530.48 237.99 530.48 237.99L565.48 246.99Z" fill="black"/>
<path id="Vector_42" opacity="0.1" d="M493.95 313.39C493.48 318.06 493.48 320.99 493.48 320.99C493.48 320.99 470.48 339.99 431.48 310.99C392.48 281.99 357.48 289.99 357.48 289.99C357.48 289.99 357.89 287.67 358.72 283.99C361.48 278.34 364.48 275.99 364.48 275.99L489.48 299.99L493.95 313.39Z" fill="black"/>
<path id="Vector_43" d="M578.96 207.94C576.35 228.29 575.48 253.94 575.48 253.94C552.48 271.94 534.48 248.94 534.48 248.94C512.76 254.77 502.55 273.78 497.74 290.37C495.164 299.344 493.732 308.607 493.48 317.94C493.48 317.94 487.4 322.94 476.2 323.94C465.61 324.83 450.43 322.07 431.48 307.94C392.48 278.94 357.48 286.94 357.48 286.94C357.48 286.94 364.48 246.94 380.48 234.94C396.48 222.94 408.48 207.94 428.48 161.94C448.48 115.94 489.48 126.94 489.48 126.94C489.48 126.94 491.48 117.94 528.48 126.94C537.492 129.302 545.834 133.721 552.85 139.85C572.64 156.49 582.24 182.3 578.96 207.94Z" fill="white"/>
<path id="Vector_44" d="M541.85 149.49C541.8 150.82 541.69 152.3 541.51 153.95C539.51 171.95 537.51 169.95 515.51 173.95C501.83 176.44 494.72 165.01 491.3 156.01C490.062 152.75 489.128 149.382 488.51 145.95L536.51 137.95C536.51 137.95 542.26 136.34 541.85 149.49Z" fill="#DB8B8B"/>
<path id="Vector_45" opacity="0.05" d="M497.74 290.42C495.164 299.394 493.732 308.657 493.48 317.99C493.48 317.99 487.4 322.99 476.2 323.99C475.884 323.353 475.643 322.682 475.48 321.99C473.48 312.99 458.48 296.99 458.48 296.99C448.48 287.99 446.48 271.99 446.48 271.99L429.98 223.49L424.48 218.99C424.48 218.99 447.48 200.99 467.48 215.99C487.48 230.99 481.48 262.99 481.48 262.99L485.48 273.99C489.63 277.49 493.85 283.66 497.74 290.42Z" fill="black"/>
<path id="Vector_46" d="M427.48 217.99L449.48 270.99C449.48 270.99 451.48 286.99 461.48 295.99C461.48 295.99 476.48 311.99 478.48 320.99C480.48 329.99 508.48 353.99 508.48 353.99C508.48 353.99 534.48 377.99 536.48 386.99C536.48 386.99 560.48 393.99 557.48 407.99C557.48 407.99 575.48 389.99 557.48 372.99C539.48 355.99 515.48 320.99 515.48 320.99C515.48 320.99 501.48 283.99 488.48 272.99L484.48 261.99C484.48 261.99 490.48 229.99 470.48 214.99C450.48 199.99 427.48 217.99 427.48 217.99Z" fill="#DB8B8B"/>
<path id="Vector_47" opacity="0.1" d="M440.48 596.99L414.48 610.99L406.48 604.99V600.99C415.464 600.352 424.193 597.718 432.03 593.28C434.43 591.92 436.69 590.58 438.5 589.4C439.55 594.03 440.48 596.99 440.48 596.99Z" fill="black"/>
<path id="Vector_48" opacity="0.1" d="M470.48 175.99L484.48 230.99C484.48 230.99 441.48 237.99 432.48 230.99C423.48 223.99 406.48 221.99 406.48 221.99C406.48 221.99 424.48 169.99 434.48 163.99C444.48 157.99 470.48 175.99 470.48 175.99Z" fill="black"/>
<path id="Vector_49" d="M470.48 173.99L484.48 228.99C484.48 228.99 441.48 235.99 432.48 228.99C423.48 221.99 406.48 219.99 406.48 219.99C406.48 219.99 424.48 167.99 434.48 161.99C444.48 155.99 470.48 173.99 470.48 173.99Z" fill="white"/>
<path id="Vector_50" opacity="0.1" d="M541.85 148.49C539.049 152.356 535.487 155.609 531.383 158.047C527.278 160.485 522.718 162.058 517.983 162.669C513.248 163.28 508.439 162.915 503.85 161.598C499.261 160.281 494.99 158.039 491.3 155.01C490.062 151.75 489.128 148.382 488.51 144.95L536.51 136.95C536.51 136.95 542.26 135.34 541.85 148.49Z" fill="black"/>
<path id="Vector_51" d="M548.48 126.99C548.48 136.273 544.793 145.175 538.229 151.739C531.665 158.303 522.763 161.99 513.48 161.99C504.197 161.99 495.295 158.303 488.731 151.739C482.168 145.175 478.48 136.273 478.48 126.99C478.48 126.41 478.48 125.83 478.48 125.25C478.711 115.967 482.62 107.157 489.346 100.756C496.073 94.3555 505.067 90.8893 514.35 91.12C523.633 91.3508 532.443 95.2595 538.844 101.986C545.245 108.713 548.711 117.707 548.48 126.99V126.99Z" fill="#DB8B8B"/>
<path id="Vector_52" opacity="0.1" d="M548.48 126.99C548.483 130.216 548.039 133.426 547.16 136.53C544.455 137.12 541.633 136.861 539.08 135.79C535.34 134.32 532.13 131.79 528.54 129.97C518.43 124.85 506.4 125.86 495.2 127.55C489.64 128.39 483.33 129.17 478.96 125.63C478.81 125.511 478.666 125.385 478.53 125.25C478.761 115.967 482.67 107.157 489.396 100.756C496.123 94.3555 505.117 90.8893 514.4 91.12C523.683 91.3508 532.493 95.2595 538.894 101.986C545.295 108.713 548.761 117.707 548.53 126.99H548.48Z" fill="black"/>
<path id="Vector_53" opacity="0.05" d="M384.98 234.49C384.98 234.49 410.98 241.49 418.98 259.49C426.98 277.49 448.62 280.78 448.62 280.78" fill="black"/>
<path id="Vector_54" d="M482.98 630.49H422.98V649.49H482.98V630.49Z" fill="#6C63FF"/>
<path id="Vector_55" opacity="0.1" d="M482.98 630.49H422.98V649.49H482.98V630.49Z" fill="black"/>
<path id="Vector_56" d="M431.99 595.23C437.36 592.23 442.07 589.23 442.48 587.99C442.48 587.99 456.03 602.29 468.1 606.73C472.159 608.229 476.044 610.16 479.69 612.49C484.47 615.49 491.29 619.02 497.48 619.02C497.48 619.02 511.48 631.02 484.48 633.02C457.48 635.02 394.48 628.02 394.48 628.02L398.48 603.02C410.167 603.705 421.804 601 431.99 595.23Z" fill="#ABB1D1"/>
</g>
<path id="hat" d="M461.624 106.927C463.754 113.607 473.984 113.817 479.234 118.737C481.964 121.297 483.234 125.077 486.234 127.357C490.404 130.537 496.424 129.837 501.734 129.077C512.424 127.557 523.904 126.647 533.544 131.257C536.964 132.887 540.034 135.167 543.604 136.497C547.174 137.827 551.604 137.987 554.504 135.627C556.824 133.737 557.674 130.627 559.774 128.547C561.404 126.907 563.674 125.987 565.534 124.547C569.614 121.467 571.374 116.447 572.534 111.647C574.934 101.767 575.624 91.1167 571.534 81.7467C567.444 72.3767 557.604 64.7467 546.864 65.2367C543.574 65.3867 540.364 66.2367 537.084 66.5967C528.534 67.4667 520.084 64.5967 511.504 64.1067C509.015 63.8039 506.49 64.1483 504.174 65.1067C502.427 66.0775 500.92 67.4273 499.764 69.0567C495.836 74.2021 493.146 80.1836 491.904 86.5367C490.904 91.3267 490.854 95.6667 484.984 96.4067C478.314 97.2867 457.114 92.7967 461.624 106.927Z" fill="#472727"/>
</g>
</g>
<defs>
<linearGradient id="paint0_linear" x1="546.305" y1="-0.00215299" x2="192" y2="640.5" gradientUnits="userSpaceOnUse">
<stop stop-color="#92AAFE" stop-opacity="0.34"/>
<stop offset="1" stop-color="#5FE231" stop-opacity="0.64"/>
</linearGradient>
<clipPath id="clip0">
<rect width="1057.7" height="784.98" fill="white"/>
</clipPath>
</defs>
</svg>
